<svg xmlns="http://www.w3.org/2000/svg" viewBox="0 0 1000 500" fill="#5A6F5A">
  <!-- World Map - Detailed -->
  
  <!-- North America -->
  <path d="M120,80 Q150,60 200,70 L260,90 Q300,110 320,150 L340,200 Q350,250 330,290 L300,320 Q260,350 210,340 L160,310 Q120,280 110,230 L100,180 Q90,130 120,80 Z" opacity="0.8"/>
  
  <!-- Greenland -->
  <path d="M280,40 Q320,30 360,40 L390,60 Q410,80 400,110 L380,130 Q350,150 310,140 L280,120 Q260,100 270,70 Z" opacity="0.7"/>
  
  <!-- South America -->
  <path d="M200,320 Q230,300 260,310 L290,350 Q310,400 300,460 L280,500 Q250,530 210,520 L180,490 Q160,440 170,380 Z" opacity="0.8"/>
  
  <!-- Europe -->
  <path d="M440,90 Q470,80 500,90 L530,110 Q550,130 545,160 L535,185 Q520,200 490,195 L465,180 Q445,160 450,130 Z" opacity="0.85"/>
  
  <!-- UK & Ireland -->
  <path d="M420,100 Q430,95 440,100 L448,115 Q452,130 445,140 L435,145 Q425,148 418,140 L412,125 Q408,110 415,100 Z" opacity="0.8"/>
  
  <!-- Scandinavia -->
  <path d="M480,50 Q510,40 540,50 L560,70 Q570,90 560,110 L540,125 Q510,135 480,125 L460,105 Q450,85 460,65 Z" opacity="0.75"/>
  
  <!-- Africa -->
  <path d="M460,200 Q500,180 540,190 L580,230 Q610,280 600,350 L580,420 Q550,470 490,460 L450,420 Q420,370 430,300 L440,240 Z" opacity="0.85"/>
  
  <!-- Middle East -->
  <path d="M560,170 Q590,160 620,170 L650,200 Q670,230 660,260 L640,290 Q610,310 580,300 L550,270 Q530,240 540,200 Z" opacity="0.8"/>
  
  <!-- Russia/Asia -->
  <path d="M550,60 Q620,40 700,50 L780,70 Q850,90 900,130 L930,180 Q950,230 930,280 L890,320 Q830,350 760,340 L680,310 Q620,280 580,230 L560,180 Q540,130 550,80 Z" opacity="0.8"/>
  
  <!-- India -->
  <path d="M660,220 Q690,200 720,210 L750,250 Q770,300 760,350 L740,390 Q710,420 680,410 L650,380 Q630,340 640,290 L650,250 Z" opacity="0.8"/>
  
  <!-- Southeast Asia -->
  <path d="M740,280 Q770,270 800,280 L830,310 Q850,340 840,370 L820,400 Q790,420 760,410 L730,380 Q710,350 720,320 Z" opacity="0.75"/>
  
  <!-- China -->
  <path d="M720,140 Q760,120 810,130 L860,160 Q890,190 880,230 L860,270 Q830,300 780,290 L730,260 Q700,230 710,190 Z" opacity="0.8"/>
  
  <!-- Japan -->
  <path d="M880,140 Q895,130 910,140 L920,160 Q928,180 920,200 L905,215 Q890,225 875,215 L865,195 Q858,175 865,155 Z" opacity="0.75"/>
  
  <!-- Australia -->
  <path d="M800,380 Q850,360 900,370 L950,410 Q980,460 960,510 L920,550 Q870,580 820,560 L780,520 Q760,470 780,420 Z" opacity="0.8"/>
  
  <!-- New Zealand -->
  <path d="M950,480 Q960,475 970,480 L978,495 Q982,510 975,520 L965,525 Q955,528 948,520 L942,505 Q938,490 945,480 Z" opacity="0.7"/>
  
  <!-- Indonesia -->
  <path d="M760,350 Q780,345 800,350 L820,365 Q830,380 825,395 L810,405 Q790,412 770,405 L755,390 Q748,375 755,360 Z" opacity="0.7"/>
</svg>
